<?xml version="1.0" encoding="utf-8"?>
<!-- Generator: Adobe Illustrator 26.0.1, SVG Export Plug-In . SVG Version: 6.00 Build 0)  -->
<svg version="1.1" id="Layer_1" xmlns="http://www.w3.org/2000/svg" xmlns:xlink="http://www.w3.org/1999/xlink" x="0px" y="0px"
	 viewBox="0 0 1080 1080" style="enable-background:new 0 0 1080 1080;" xml:space="preserve">
<style type="text/css">
	.st0{fill:#F2F3F3;}
	.st1{fill:#9CA8AF;}
	.st2{fill:#0E2E50;}
	.st3{fill:#005667;}
	.st4{fill:#BF6854;}
	.st5{fill:#00B1B3;}
	.st6{fill:#FDFEFF;}
	.st7{opacity:0.12;fill:#010101;}
	.st8{fill:#E8EBED;}
	.st9{opacity:0.47;}
	.st10{fill:#849397;}
	.st11{opacity:0.32;fill:#849397;}
	.st12{fill:#042337;}
	.st13{fill:#C9E6F4;}
	.st14{fill:#FCB139;}
	.st15{fill:#EEEEEF;}
	.st16{fill:#FFFFFF;}
	.st17{fill:#F8C3A5;}
</style>
<g>
	<g>
		<path class="st0" d="M496.08,771.9c-31.2,0.09-62.4,0.84-93.54,4.31c-11.74,1.31-23.24,4.18-35.01,5.34
			c-23.51,2.31-46.6,6.63-70.19,8.62c-19,1.6-38.08,2.55-57.02,4.59c-17.76,1.91-37.42,1.47-55.05-1.68
			c-13.05-2.33-26.15-3.65-38.98-7.4c-14.35-4.19-29.94-7.19-44.89-7.08c-21.32,0.15-42.08,0.17-62.49,7.58
			c-7.16,2.6-15.93,6.87-21.37,12.32c-12.45,12.49-14.14,43.64-1.7,56.59c20.94,21.79,65.63,30.35,94.98,30.75
			c32.16,0.44,63.41-1.95,95.62-3.35c29.93-1.3,59.78-3.16,89.76-3.1c61.23,0.13,122.47,0,183.59-4.09
			c57.42-3.84,114.99-2.52,172.54-2.52c59.01,0,117.63,0.46,176.22,8.31c25.53,3.42,51.53,4.61,77.19,7.01
			c22.98,2.14,45.06-0.04,67.94-2.02c19.22-1.66,38.31-6.6,55.77-14.94c13.82-6.6,38.46-27.12,42.69-42.89
			c11.88-44.19-167.44-43.13-194.97-43.03c-30.8,0.11-61.84,1.12-92.62-0.05c-12.95-0.49-25.7-3.02-38.34-5.8
			c-12.58-2.76-25.26-2.06-38.03-3.22C654.95,771.3,601.61,772,548.22,772C530.85,772,513.46,771.85,496.08,771.9z"/>
	</g>
	<g>
		<g>
			<polygon class="st1" points="92.79,594.24 88.91,684.23 100.28,837.25 117.3,838.46 137.98,699.48 166.59,581.88 			"/>
			<polygon class="st2" points="116.7,845.63 97.64,853.52 89.09,843.67 98.94,835.12 117.35,836.42 			"/>
		</g>
		<g>
			<polygon class="st1" points="213.27,562.39 217,630.42 205.92,832.68 188.88,833.53 163.34,700.87 140.81,555.4 			"/>
			<polygon class="st2" points="189.34,840.71 208.23,849 216.98,839.33 207.31,830.57 188.88,831.5 			"/>
		</g>
		<g>
			<path class="st3" d="M88.33,367.69l51.48-14.49c0,0,29.7-1.82,61.22,64.1c17.54,36.67,31.17,96.82,39.81,142.98
				c-0.12,6.81-2.42,36.96-33.67,37.2c-53.67,0.42-82.9-3.3-104.93,4.77c-18.67,7.49-21.54-19.46-22.86-40.19l-2.94-64.31
				L88.33,367.69z"/>
		</g>
		<g>
			<path class="st4" d="M87.41,300.71c12.72-5.15,25.88-10.06,39.55-9.68c2.99,0.08,6.28,0.56,8.27,2.8
				c0.77,0.87,1.28,1.93,1.77,2.98c5.44,11.84,12.79,29.52,6.56,42.34c-1.19,2.44-2.99,4.53-5,6.31c-2.69,2.39-5.8,4.23-9.13,5.49
				c1.23,2.96,2.74,5.82,4.49,8.51c-2.25,5.07-16.27,8.01-19.62,4.08c-0.79-3.76-1.57-7.52-2.36-11.28
				c-1.84-0.4-3.64-0.97-5.37-1.73c-6.7-2.95-11.7-8.31-15.15-14.66c-3.76-6.92-8.48-13.3-12.04-20.4c-1.3-2.58-2.49-5.59-1.47-8.29
				c1.08-2.88,4.23-4.33,7.08-5.5C85.79,301.37,86.6,301.04,87.41,300.71z"/>
			<path class="st2" d="M132.59,300.36c-7.24-3.09-17.35-3.24-23.41-1.76c-18.34,4.49-22.83,19.28-20.94,36.52
				c-6.22-5.64-17.2-12.19-19.2-20.46c-1.63-6.77-2.27-16.27,0.57-22.83c2.65-6.14,11.32-10.74,16.23-14.87
				c4.63-3.89,9.27-7.79,13.9-11.68c0.96-0.81,1.96-1.64,3.14-2.06c1.4-0.5,2.94-0.38,4.42-0.25c12.69,1.08,25.39,2.17,38.08,3.25
				c2.44,0.21,5.25,0.64,6.49,2.75c0.76,1.28,0.71,2.87,0.64,4.35c-0.31,6.55-1.87,13.45-1.44,19.96
				c-0.11,3.84,0.9,23.26-6.06,22.18c-2.47-2.83-3.41-6.67-5.49-9.8C138,303.36,135.53,301.62,132.59,300.36z"/>
		</g>
		<polygon class="st3" points="139.81,353.2 160.19,355.81 243.52,417.98 251.87,441.7 227.49,503.29 214.89,484.36 222.22,440.65 
			196.76,428.49 154.87,365.38 		"/>
	</g>
	<g>
		<g>
			<g>
				<g>
					
						<rect x="204.02" y="255.76" transform="matrix(0.9962 -0.0875 0.0875 0.9962 -46.1891 39.1733)" class="st5" width="439.8" height="581.8"/>
					
						<rect x="225.91" y="274.3" transform="matrix(0.9962 -0.0875 0.0875 0.9962 -45.9085 39.1361)" class="st6" width="395.44" height="538.28"/>
					<g>
						
							<rect x="314.65" y="272.47" transform="matrix(0.9962 -0.0875 0.0875 0.9962 -22.9953 36.1056)" class="st7" width="171.74" height="15.98"/>
						<g>
							<path class="st8" d="M446.06,219.91l-2.65,0.23l-0.16-1.77c-1.47-16.71-18.36-28.89-37.73-27.19l-25.51,2.24
								c-19.37,1.7-33.88,16.63-32.41,33.34l0.16,1.77l-2.65,0.23c-19.37,1.7-33.88,16.63-32.41,33.34l2.97,33.81l171.08-15.02
								l-2.97-33.81C482.32,230.39,465.43,218.21,446.06,219.91z M418.19,223.06l-45.08,3.96c-4.61,0.4-8.71-3-9.11-7.57
								c-0.4-4.57,3.04-8.63,7.65-9.04l45.07-3.96c4.61-0.4,8.71,3,9.11,7.57C426.23,218.59,422.79,222.66,418.19,223.06z"/>
						</g>
					</g>
				</g>
				<g class="st9">
					<path class="st10" d="M328.54,482.06c-19.28,1.69-38.56,3.39-57.84,5.08c-1.63,0.14-2.89,1.63-2.75,3.25
						c1.68,19.11,3.36,38.22,5.04,57.33c0.14,1.61,1.64,2.86,3.27,2.72c19.28-1.69,38.56-3.39,57.84-5.08
						c0.88-0.08,1.53-0.46,1.97-0.98c0.03-0.03,0.06-0.07,0.09-0.1c0.02-0.02,0.04-0.04,0.05-0.06c0.45-0.52,0.72-1.22,0.64-2.11
						c-1.68-19.11-3.36-38.22-5.04-57.33C331.68,483.16,330.18,481.91,328.54,482.06z M330.57,539.65
						c-17.27,1.52-34.54,3.03-51.81,4.55c-1.5-17.12-3.01-34.24-4.51-51.36c17.27-1.52,34.54-3.03,51.81-4.55
						C327.56,505.41,329.07,522.53,330.57,539.65z"/>
					<path class="st10" d="M337.86,588.06c-19.28,1.69-38.56,3.39-57.84,5.08c-1.63,0.14-2.89,1.63-2.75,3.25
						c1.68,19.11,3.36,38.22,5.04,57.33c0.14,1.61,1.64,2.86,3.27,2.72c19.28-1.69,38.56-3.39,57.84-5.08
						c0.88-0.08,1.53-0.46,1.97-0.98c0.03-0.03,0.06-0.07,0.09-0.1c0.02-0.02,0.04-0.04,0.05-0.06c0.45-0.52,0.72-1.22,0.64-2.11
						c-1.68-19.11-3.36-38.22-5.04-57.33C341,589.17,339.49,587.92,337.86,588.06z M339.89,645.66
						c-17.27,1.52-34.54,3.03-51.81,4.55c-1.51-17.12-3.01-34.24-4.51-51.36c17.27-1.52,34.54-3.03,51.81-4.55
						C336.88,611.42,338.39,628.54,339.89,645.66z"/>
					<path class="st10" d="M347.18,694.07c-19.28,1.69-38.56,3.39-57.84,5.08c-1.63,0.14-2.89,1.63-2.75,3.25
						c1.68,19.11,3.36,38.22,5.04,57.33c0.14,1.61,1.64,2.86,3.27,2.72c19.28-1.69,38.56-3.39,57.84-5.08
						c0.88-0.08,1.53-0.46,1.97-0.98c0.03-0.03,0.06-0.07,0.09-0.1c0.02-0.02,0.04-0.04,0.05-0.06c0.45-0.52,0.72-1.22,0.64-2.11
						c-1.68-19.11-3.36-38.22-5.04-57.33C350.31,695.17,348.81,693.92,347.18,694.07z M349.21,751.66
						c-17.27,1.52-34.54,3.03-51.81,4.55c-1.51-17.12-3.01-34.24-4.51-51.36c17.27-1.52,34.54-3.03,51.81-4.55
						C346.2,717.42,347.7,734.54,349.21,751.66z"/>
				</g>
				<polygon class="st5" points="292.1,507.12 305,501.56 313.55,514.09 373.07,463.12 380.58,463.94 312.01,530.45 				"/>
				<polygon class="st5" points="296.83,616.23 309.74,610.67 318.28,623.2 377.8,572.24 385.31,573.05 316.74,639.56 				"/>
				<polygon class="st5" points="304.44,716.67 317.35,711.11 325.89,723.64 385.42,672.67 392.93,673.49 324.36,740 				"/>
				
					<rect x="387.25" y="705.08" transform="matrix(0.9962 -0.0875 0.0875 0.9962 -61.0515 45.5847)" class="st11" width="204.82" height="28.78"/>
				
					<rect x="377.38" y="592.81" transform="matrix(0.9962 -0.0875 0.0875 0.9962 -51.2691 44.2912)" class="st11" width="204.82" height="28.78"/>
				
					<rect x="367.51" y="480.53" transform="matrix(0.9962 -0.0875 0.0875 0.9962 -41.4868 42.9977)" class="st11" width="204.82" height="28.78"/>
			</g>
		</g>
	</g>
	<g>
		<polygon class="st3" points="110.11,400.09 102.86,457.91 196.7,520.77 191.55,537.54 71.72,491.71 61.05,452.62 88.33,367.69 		
			"/>
		<polygon class="st4" points="192.66,533.95 200.08,540.35 218.75,541.55 218.58,531.2 205.23,526.37 203.85,520.96 196.7,520.77 
					"/>
	</g>
	<g>
		<g>
			<g>
				<g>
					<polygon class="st12" points="1007.61,823.69 1008.54,832.78 991.29,843.71 981.27,835.55 989.44,825.54 1006.69,814.6 					
						"/>
					<polygon class="st3" points="1008.28,546.47 1011.09,574.07 986.44,697.4 1008.27,820.66 990.61,826.1 933.51,679.55 
						930.38,634.75 938.11,541.94 					"/>
				</g>
				<g>
					<polygon class="st3" points="874.45,555.87 873.88,672.46 896.86,822.63 913.75,822.52 923.49,683.75 945.68,544.89 					"/>
					<polygon class="st12" points="913.7,829.64 895.5,838.9 886.3,829.83 895.37,820.63 913.64,820.51 					"/>
				</g>
			</g>
			<g>
				<path class="st13" d="M860.21,538.76c12.19-37.75,13.49-77.39,17.03-116.72c1.05-11.6,2.17-23.46,7-34.06
					c5.55-12.17,14.72-18.6,25.4-22.11c13.6-4.47,29.64-4.21,43.78-5.07c13.41-0.42,25.28,50,38.96,74.44
					c8.38,14.98,17.02,28.23,22.68,44.57c5.43,15.68,10.64,31.64,13.8,47.95c4.77,24.63,16.96,41.83,5.32,50.21
					c-1.07,0.35-2.1,0.7-3.07,1.05c-19.1,6.84-38.87,11.91-59,14.57c-17.86,2.36-35.99,2.79-53.92,1.02
					c-24.54-2.42-48.32-5.89-69.96-18.69C852.21,563.53,856.21,551.14,860.21,538.76z"/>
			</g>
		</g>
		<polygon class="st13" points="776.06,462.39 860.16,437.26 888.72,380.34 904.45,409.45 886.3,462.39 794.25,480.61 		"/>
	</g>
	<g>
		
			<rect x="781.84" y="294.62" transform="matrix(-0.7077 0.7065 -0.7065 -0.7077 1725.7217 187.4689)" class="st14" width="84.49" height="312.16"/>
		<polygon class="st15" points="743.71,310.39 660.51,286.85 683.92,370.09 		"/>
		<polygon class="st3" points="691.73,295.68 660.51,286.85 669.3,318.08 		"/>
		<path class="st16" d="M942.17,612.89l44.39-44.32c4.25-4.25,4.26-11.13,0.01-15.39l-22.33-21.87l-59.8,59.69l22.33,21.87
			C931.03,617.13,937.92,617.14,942.17,612.89z"/>
		<polygon class="st15" points="904.45,591.01 964.25,531.32 953.09,520.13 892.83,579.36 		"/>
	</g>
	<g>
		<path class="st17" d="M959.97,323.27c-7.64-23.07-41.31-31.1-49.13-4.29c-2.35,8.06-3.77,16.6-2.17,24.84
			c1.6,8.24,6.63,16.14,14.32,19.52c0.04,0.02,0.09,0.04,0.13,0.05c-0.3,2.14-0.6,4.28-0.9,6.41c-0.06,0.46-0.12,0.97,0.14,1.35
			c0.29,0.44,0.88,0.55,1.4,0.63c2.55,0.38,5.1,0.76,7.66,1.14c1.27,0.19,2.58,0.37,3.8-0.02c2.67-0.85,3.78-4.05,3.89-6.85
			c0.03-0.67,0.02-1.35,0.01-2.02C954.23,358.87,964.97,338.34,959.97,323.27z"/>
		<g>
			<path class="st2" d="M918.96,283.88c-6.16-0.92-11.41,5.06-17.1,8.2c-4.73,2.61-10.1,3.3-15,5.47c-4.9,2.16-9.72,6.68-9.83,12.34
				c-4.97-2.59-10.35-5.24-15.92-4.17c-5.57,1.07-10.74,7.72-8.52,13.2c1.99,4.91,8.39,6.06,10.52,10.89
				c3.37,7.64-5.74,19.51,0.48,24.58c1.49,1.22,3.53,1.51,5,2.77c1.82,1.56,2.41,4.23,3.22,6.61c3.68,10.78,14.55,17.83,25.29,16.39
				c6.68-3.13,12-9.59,14.38-16.99c2.87-8.92-1.9-12.03-2.7-20.4c-0.88-9.15,2.03-18.83,7.79-25.94c3.75-4.62,9.11-8.61,14.78-9.15
				c2.3-0.22,1.58,1.7,4.17-0.08c1.11-0.77,2.63-3.66,2.95-5.05C932.25,297.57,927.07,285.08,918.96,283.88z"/>
			<path class="st2" d="M985.63,295.74c3.18,0.89,6.63,0.76,9.66,2.08c4.55,2,4.27,6.72,5.56,10.82c1.43,4.54,3.5,10.64,6.49,14.17
				c2.16,2.55,5.18,4,7.81,5.96c2.63,1.96,5.05,4.86,4.99,8.41c-0.05,3.35-2.31,6.37-2.64,9.72c-0.4,5,0.46,7.55-1.08,12.66
				c-0.79,2.63-1.68,5.42-3.66,7.22c-2.61,2.37-6.32,2.32-9.58,1.78c-3.26-0.54-6.63-1.45-9.84-0.37c-6.97,2.34-5.67,9.39-7.52,15.3
				c-2.82,8.99-13.25,14.24-21.23,11.04c-6.76-2.71-10.68-10.56-10.37-18.32c0.15-3.88,1.7-7.5,1.81-11.38
				c0.11-3.75-2-8.93,1.39-11.91c0.83-0.72,1.89-1.11,2.63-1.93c0.6-0.67,0.93-1.56,1.14-2.45c0.72-3.1,0.04-6.47-1.78-8.84
				c-1.31-1.7-3.19-2.95-4-5c-0.92-2.36-0.19-5.11-0.04-7.71c0.38-6.29-3.06-12.46-8.31-14.89c-3.45-1.6-6.57-2.55-9.58-4.98
				c-0.46-0.37-7.33-6.44-7.51-5.13c0.31-2.28,1.64-4.28,2.99-6.11c2.22-3.01,4.68-5.94,7.81-7.75c10.11-5.83,10.6,7.72,18.71,5.94
				c1.96-0.43,3.43-2.22,5.19-3.3c3.33-2.02,7.42-1.3,10.82,0.22C978.93,292.49,982.04,294.74,985.63,295.74z"/>
		</g>
	</g>
	<polygon class="st17" points="773.36,474.23 783.32,472.1 795.82,481.66 786.38,492.67 776.94,484.96 	"/>
	<g>
		<polygon class="st17" points="883.11,506.14 876.41,513.3 857.97,516.49 857.04,506.18 869.8,499.95 870.58,494.43 877.67,493.47 
					"/>
		<polygon class="st13" points="865.8,493.09 949.9,467.95 978.45,411.03 994.19,440.15 976.04,493.09 883.98,511.31 		"/>
	</g>
	<g>
		<polygon class="st2" points="308.52,350.03 250.34,355.58 251.5,367.81 272.98,365.77 278.36,422.12 293.58,420.67 288.2,364.32 
			309.69,362.27 		"/>
		<path class="st2" d="M374.84,359.46c-3.2-5.01-7.44-8.7-12.72-11.08c-5.28-2.38-11.33-3.24-18.13-2.6
			c-6.81,0.65-12.59,2.64-17.36,5.98c-4.77,3.34-8.27,7.77-10.49,13.3c-2.23,5.53-3,11.85-2.32,18.98
			c0.68,7.13,2.64,13.23,5.87,18.3c3.24,5.07,7.51,8.79,12.83,11.17c5.31,2.38,11.37,3.24,18.18,2.59
			c6.81-0.65,12.58-2.64,17.32-5.98c4.74-3.33,8.2-7.8,10.39-13.38c2.19-5.59,2.94-11.94,2.27-19.07
			C379.98,370.54,378.04,364.47,374.84,359.46z M362.52,396.99c-2.86,4.35-7.18,6.81-12.96,7.36c-5.78,0.55-10.48-1.03-14.11-4.73
			c-3.63-3.7-5.8-9.38-6.53-17.02c-0.72-7.58,0.35-13.51,3.21-17.8c2.86-4.29,7.18-6.71,12.96-7.26c5.78-0.55,10.48,1.01,14.1,4.68
			c3.62,3.67,5.79,9.3,6.52,16.87C366.45,386.67,365.38,392.63,362.52,396.99z"/>
		<path class="st2" d="M475.95,350.01c-3.35-4.86-7.85-8.39-13.5-10.57c-5.65-2.18-12.23-2.92-19.75-2.2l-26.49,2.53l6.54,68.59
			l26.49-2.53c7.58-0.72,13.93-2.71,19.07-5.95c5.13-3.24,8.87-7.57,11.2-12.98c2.34-5.41,3.16-11.71,2.47-18.9
			C481.31,360.87,479.3,354.88,475.95,350.01z M447.12,393.78l-10.5,1l-4.23-44.31l10.5-1c14.64-1.4,22.66,5.26,24.07,19.97
			C468.38,384.27,461.76,392.38,447.12,393.78z"/>
		<path class="st2" d="M558.57,360.7c-0.68-7.13-2.62-13.2-5.82-18.21c-3.2-5.01-7.44-8.7-12.72-11.08
			c-5.28-2.38-11.33-3.25-18.13-2.6c-6.81,0.65-12.59,2.64-17.36,5.98c-4.77,3.34-8.27,7.77-10.49,13.3
			c-2.23,5.53-3,11.85-2.32,18.98c0.68,7.13,2.64,13.23,5.87,18.3c3.24,5.07,7.51,8.8,12.83,11.17c5.32,2.38,11.37,3.24,18.18,2.59
			c6.81-0.65,12.58-2.64,17.32-5.98c4.74-3.33,8.2-7.79,10.39-13.38C558.5,374.19,559.25,367.83,558.57,360.7z M540.44,380.02
			c-2.86,4.36-7.18,6.81-12.96,7.36c-5.78,0.55-10.48-1.03-14.11-4.73c-3.63-3.7-5.8-9.38-6.53-17.02
			c-0.72-7.58,0.35-13.51,3.21-17.8c2.86-4.29,7.18-6.71,12.96-7.26c5.78-0.55,10.48,1.01,14.1,4.68c3.62,3.67,5.79,9.3,6.52,16.88
			C544.36,369.7,543.3,375.67,540.44,380.02z"/>
	</g>
</g>
</svg>
